<?xml version="1.0" encoding="utf-8"?>
<!-- Generator: Adobe Illustrator 21.0.2, SVG Export Plug-In . SVG Version: 6.00 Build 0)  -->
<svg version="1.1" id="Layer_1" xmlns="http://www.w3.org/2000/svg" xmlns:xlink="http://www.w3.org/1999/xlink" x="0px" y="0px"
	 viewBox="0 0 32 32" style="enable-background:new 0 0 32 32;" xml:space="preserve">
<style type="text/css">
	.st0{fill:#FF821E;}
	.st1{fill:#FFFFFF;}
</style>
<title>icon-32x32-bitcoin</title>
<desc>Created with Sketch.</desc>
<g id="ALL">
	<g id="Payment-Method-icons" transform="translate(-1136.000000, -758.000000)">
		<g id="Group-2" transform="translate(416.000000, 758.000000)">
			<g id="icon-32x32-bitcoin" transform="translate(720.000000, 0.000000)">
				<path id="Rectangle-15" class="st0" d="M16,0L16,0c8.8,0,16,7.2,16,16v0c0,8.8-7.2,16-16,16h0C7.2,32,0,24.8,0,16v0
					C0,7.2,7.2,0,16,0z"/>
				<path id="Shape" class="st1" d="M22,14.8c0.3-1.8-1.1-2.7-3-3.4L19.6,9l-1.5-0.4L17.5,11c-0.4-0.1-0.8-0.2-1.2-0.3l0.6-2.4
					L15.4,8l-0.6,2.4c-0.3-0.1-0.6-0.1-1-0.2l0,0l-2.1-0.5l-0.4,1.6c0,0,1.1,0.3,1.1,0.3c0.6,0.1,0.7,0.5,0.7,0.9l-0.7,2.8
					c0,0,0.1,0,0.2,0c0,0-0.1,0-0.2,0l-1,3.9c-0.1,0.2-0.3,0.5-0.7,0.3c0,0-1.1-0.3-1.1-0.3L9,20.8l1.9,0.5c0.4,0.1,0.7,0.2,1.1,0.3
					L11.4,24l1.5,0.4l0.6-2.4c0.4,0.1,0.8,0.2,1.2,0.3l-0.6,2.4l1.5,0.4l0.6-2.4c2.5,0.5,4.5,0.3,5.3-2c0.6-1.8,0-2.9-1.4-3.6
					C21,16.8,21.8,16.1,22,14.8L22,14.8z M18.6,19.6c-0.5,1.8-3.6,0.8-4.6,0.6l0.8-3.2C15.8,17.2,19,17.6,18.6,19.6z M19,14.8
					c-0.4,1.7-3,0.8-3.9,0.6l0.7-2.9C16.7,12.7,19.5,13.1,19,14.8z"/>
			</g>
		</g>
	</g>
</g>
</svg>
