<?xml version="1.0" encoding="utf-8"?>
<!-- Generator: Adobe Illustrator 21.0.2, SVG Export Plug-In . SVG Version: 6.00 Build 0)  -->
<svg version="1.1" id="Layer_1" xmlns="http://www.w3.org/2000/svg" xmlns:xlink="http://www.w3.org/1999/xlink" x="0px" y="0px"
	 viewBox="0 0 95 20" style="enable-background:new 0 0 95 20;" xml:space="preserve">
<style type="text/css">
	.st0{fill:#FFFFFF;}
	.st1{fill:none;}
	.st2{font-family:'MyriadPro-Semibold';}
	.st3{font-size:6px;}
</style>
<title>Group 2</title>
<desc>Created with Sketch.</desc>
<g>
	<polygon class="st0" points="20.2,16.3 18.3,14.7 18.3,18.2 14.4,18.2 14.4,11.5 12.5,10 12.5,18.2 10.9,18.2 10.9,10 8.9,11.5 
		8.9,18.2 5.1,18.2 5.1,14.7 3.2,16.3 3.2,18.2 1.2,18.2 1.2,19 3.9,19 3.9,16.7 4.3,16.3 4.3,19 9.7,19 9.7,11.8 10.1,11.5 
		10.1,19 13.2,19 13.2,11.5 13.6,11.8 13.6,19 19,19 19,16.3 19.4,16.7 19.4,19 22.1,19 22.1,18.2 20.2,18.2 	"/>
	<polygon class="st0" points="16.3,12.7 16.3,17 15.6,17 15.6,11 11.7,7.8 7.8,11 7.8,17 7,17 7,12.7 6.2,12.3 2,15.7 2,17.8 
		2.8,17.8 2.8,16.1 5.5,13.9 5.5,17.8 8.6,17.8 8.6,11.4 11.3,9.1 11.3,17.8 12.1,17.8 12.1,9.1 14.8,11.4 14.8,17.8 17.9,17.8 
		17.9,13.9 20.6,16.1 20.6,17.8 21.4,17.8 21.4,15.7 17.1,12.3 	"/>
</g>
<rect x="25.2" y="14.6" class="st1" width="53.9" height="7.8"/>
<text transform="matrix(1 0 0 1 25.1842 18.8802)" class="st0 st2 st3">ImmoFound</text>
</svg>
