<?xml version="1.0" encoding="UTF-8"?>
<svg width="25px" height="25px" viewBox="0 0 25 25" version="1.1" xmlns="http://www.w3.org/2000/svg" xmlns:xlink="http://www.w3.org/1999/xlink">
    <!-- Generator: Sketch 41.2 (35397) - http://www.bohemiancoding.com/sketch -->
    <title>chat-bubbles</title>
    <desc>Created with Sketch.</desc>
    <defs></defs>
    <g id="Page-1" stroke="none" stroke-width="1" fill="none" fill-rule="evenodd">
        <g id="Artboard" transform="translate(-161.000000, -19.000000)">
            <g id="elements" transform="translate(64.000000, 17.000000)">
                <g id="chat-bubbles" transform="translate(95.000000, 0.000000)">
                    <g transform="translate(0.361702, 0.872340)">
                        <path d="M2.3024273,13.5801192 C2.3024273,15.9934024 3.47491865,18.1638394 5.3380036,19.6892165 L5.3380036,24.2046362 L10.3542934,21.8217088 C10.82329,21.8824204 11.3127405,21.8100972 11.7886032,21.927954 C17.4453566,23.3289609 21.2747792,18.1941952 21.2747792,13.5801192 C21.2747792,8.96604322 16.7893305,4.70700736 11.5506847,4.70700736 C6.31128001,4.70700736 2.3024273,8.96604322 2.3024273,13.5801192 Z" id="Fill-445" fill="#4CDBB4" transform="translate(11.788603, 14.455822) scale(1, -1) rotate(-192.000000) translate(-11.788603, -14.455822) "></path>
                        <path d="M6.79557061,10.5886868 C6.79557061,13.00197 7.96806195,15.172407 9.83114691,16.6977841 L9.93870557,22.8377581 L14.8474367,18.8302765 C15.3164333,18.890988 15.7922599,18.9365216 16.2817465,18.9365216 C21.5203923,18.9365216 26.1043866,15.7697415 25.7792445,9.96060903 C25.4541025,4.15147655 21.4644344,1.84965423 16.2257886,1.84965423 C10.9863839,1.84965423 6.79557061,5.97461085 6.79557061,10.5886868 Z" id="Fill-445-Copy" stroke="#5E38A3" stroke-width="1.4" fill="#EB3B8C" transform="translate(16.295562, 12.343706) scale(1, -1) rotate(-170.000000) translate(-16.295562, -12.343706) "></path>
                        <path d="M16.0070182,8.71353878 C16.0070182,8.71353878 19.0966566,5.36540768 23.5833777,7.37519008 C24.8822131,7.95699057 25.7601803,8.93650071 26.3941739,9.7866854" id="Line" stroke="#FFFFFF" stroke-width="1.4" stroke-linecap="round" opacity="0.210000008" transform="translate(21.200596, 8.259746) rotate(61.000000) translate(-21.200596, -8.259746) "></path>
                    </g>
                </g>
            </g>
        </g>
    </g>
</svg>