<?xml version="1.0" encoding="utf-8"?>
<!-- Generator: Adobe Illustrator 21.0.2, SVG Export Plug-In . SVG Version: 6.00 Build 0)  -->
<svg version="1.1" id="Layer_1" xmlns="http://www.w3.org/2000/svg" xmlns:xlink="http://www.w3.org/1999/xlink" x="0px" y="0px"
	 viewBox="0 0 350 233" style="enable-background:new 0 0 350 233;" xml:space="preserve">
<style type="text/css">
	.st0{opacity:0.1658;}
	.st1{fill:#FFFFFF;}
	.st2{opacity:0.7;}
	.st3{fill:#7487E1;}
	.st4{fill:#25378C;}
	.st5{fill:#FFC8AE;}
	.st6{opacity:0.3052;fill:#E2866C;enable-background:new    ;}
	.st7{fill:#FCD0BB;}
	.st8{opacity:0.5598;fill:#F3B9A2;enable-background:new    ;}
	.st9{fill:none;stroke:#321E56;stroke-width:1.5;stroke-linecap:round;}
	.st10{fill:none;stroke:#EFAE9C;stroke-width:2.0738;stroke-linecap:round;}
	.st11{fill:#F5F5F5;}
	.st12{fill:#E6E2E2;}
	.st13{opacity:0.1658;fill:#364789;enable-background:new    ;}
	.st14{fill:#364789;}
</style>
<title>hr_illustration</title>
<desc>Created with Sketch.</desc>
<g id="Page-1">
	<g id="Artboard" transform="translate(0.000000, -2.000000)">
		<g id="hr_illustration">
			<g id="Group-8" transform="translate(150.425532, 145.957447)">
				<g id="Illustration_IPVS" transform="translate(0.737586, 0.000000)">
					<g id="Group-4" transform="translate(0.226284, 0.309091)">
						<g id="Group" transform="translate(0.569270, 0.598730)">
						</g>
					</g>
				</g>
			</g>
			<g id="Group-13" transform="translate(46.914894, 0.000000)" class="st0">
				<path id="Fill-6" class="st1" d="M297.7,136.7c-2.7,0.3-4,0.9-6,2.7c-0.3-2.7-0.9-4-2.8-5.9c2.7-0.3,4-0.9,6-2.7
					C295.2,133.5,295.8,134.7,297.7,136.7"/>
				<path id="Fill-6_1_" class="st1" d="M93.1,59.8c-1.9,2-2.5,3.2-2.8,5.9c-2-1.9-3.2-2.5-6-2.7c1.9-2,2.5-3.2,2.8-5.9
					C89.1,58.9,90.3,59.5,93.1,59.8"/>
				<path id="Fill-6_2_" class="st1" d="M263.1,18.6c-2.7,0.3-4,0.9-6,2.7c-0.3-2.7-0.9-4-2.8-5.9c2.7-0.3,4-0.9,6-2.7
					C260.6,15.3,261.2,16.6,263.1,18.6"/>
				<path id="Fill-6_3_" class="st1" d="M184.5,53.1c-2.7,0.3-4,0.9-6,2.8c-0.3-2.7-0.9-4-2.8-6c2.7-0.3,4-0.9,6-2.8
					C181.9,49.9,182.5,51.1,184.5,53.1"/>
				<path id="Fill-6_4_" class="st1" d="M10,4.2c-1.6,2-2.1,3.2-2.1,5.8c-2-1.6-3.2-2-5.8-2.1c1.6-2,2.1-3.2,2.1-5.8
					C6.2,3.7,7.4,4.1,10,4.2"/>
				<path id="Fill-6_5_" class="st1" d="M72.8,153.3c-1.9,2-2.5,3.2-2.8,6c-2-1.9-3.2-2.5-6-2.7c1.9-2,2.5-3.2,2.8-6
					C68.8,152.4,70,153,72.8,153.3"/>
			</g>
			<g id="Group-14" transform="translate(0.000000, 12.659574)" class="st2">
				<path id="Combined-Shape" class="st3" d="M287.4,174.9v11.4H47.7v-11.8h16.8c11.5,0,20.8-9.3,20.8-20.8
					c0-11.5-9.3-20.8-20.8-20.8H47.7V119h239.8v14.3h-52.2c-11.5,0-20.8,9.3-20.8,20.8c0,11.5,9.3,20.8,20.8,20.8H287.4z"/>
				<path id="Combined-Shape_1_" class="st3" d="M281.8,86.8V100h-204V86.9h12.4c11.2,0,20.3-9.1,20.3-20.3
					c0-11.2-9.1-20.3-20.3-20.3H77.9V20.9h204v25.3h-29.9c-11.2,0-20.3,9.1-20.3,20.3c0,11.2,9.1,20.3,20.3,20.3H281.8z"/>
				<path id="Rectangle-26" class="st3" d="M53.2,86.8h250.3c12.9,0,23.4,10.5,23.4,23.4l0,0c0,12.9-10.5,23.4-23.4,23.4H53.2
					c-12.9,0-23.4-10.5-23.4-23.4l0,0C29.8,97.2,40.3,86.8,53.2,86.8z"/>
				<path id="Rectangle-26_1_" class="st3" d="M59.6,23.4C59.6,10.5,70.1,0,83,0h74.5c12.9,0,33.9,0,46.9,0h71.6
					c12.9,0,23.4,10.5,23.4,23.4l0,0c0,12.9-10.5,23.4-23.4,23.4H83C70.1,46.8,59.6,36.4,59.6,23.4L59.6,23.4z"/>
				<path id="Rectangle-26-Copy" class="st3" d="M23.8,174.3h302.7c12.9,0,23.4,10.5,23.4,23.4v0c0,12.9-10.5,23.4-23.4,23.4H23.8
					c-12.9,0-23.4-10.5-23.4-23.4v0C0.4,184.8,10.9,174.3,23.8,174.3z"/>
			</g>
			<path id="Rectangle" class="st4" d="M143,117.7l71,0.7l0.8,18.6c0.5,10.6-7.8,19.2-18.4,19.2H161c-10.6,0-19-8.6-18.7-19.3
				L143,117.7z"/>
			<path id="Oval-2" class="st5" d="M178.9,152.3c20.7,0,37.4-14.4,37.4-35.1s-16.8-37.5-37.4-37.5s-37.4,16.8-37.4,37.5
				S158.2,152.3,178.9,152.3z"/>
			<ellipse id="Oval" class="st6" cx="197.5" cy="134.9" rx="3.9" ry="3.9"/>
			<ellipse id="Oval_1_" class="st6" cx="158" cy="134.9" rx="3.9" ry="3.9"/>
			<path id="Rectangle-569" class="st4" d="M159,164c0.3-2.2,2.4-3.9,4.6-3.9h29.5c2.2,0,4.2,1.8,4.5,3.9l6.1,39.4h-51.1L159,164z"
				/>
			<path id="Rectangle-568" class="st7" d="M175,152.2c0-2.2,1.8-4,4-4l0,0c2.2,0,4,1.8,4,4v7.9c0,2.2-1.8,4-4,4l0,0
				c-2.2,0-4-1.8-4-4V152.2z"/>
			<ellipse id="Oval-3" class="st7" cx="143.1" cy="123" rx="4.6" ry="4.6"/>
			<ellipse id="Oval-3_1_" class="st7" cx="213.9" cy="123" rx="4.6" ry="4.6"/>
			<path id="Oval-276" class="st8" d="M213.4,123.3c3.5-23-10.3-39.9-32.2-39.9c-13.4,0-19.4,4.4-21.1,6c-0.4,0.4,10,21.8,10,21.8
				S176.2,124.7,213.4,123.3z"/>
			<path id="Oval-276_1_" class="st4" d="M217.2,121.5c1.6-37-28.8-44.8-38.4-44.8c-21.2,0-25.6,9.3-28.2,14.3
				C148.1,96,169.6,124.7,217.2,121.5z"/>
			<path id="Oval-276_2_" class="st4" d="M176.4,76c-21.2,0-36.4,18.6-36.4,44.4C184.7,121.8,197.5,76,176.4,76z"/>
			<path id="Line" class="st9" d="M203.9,120.3c0,0-23.7,0.6-41.5-15.7c-6-5.5-8.1-8.7-10.4-13"/>
			<path id="Line_1_" class="st10" d="M181.9,135.5c0,0-0.5,3.7-3.6,3.7s-3.4-3.7-3.4-3.7"/>
			<rect id="Rectangle-31" x="148.2" y="166.1" class="st11" width="60.3" height="37.1"/>
			<path id="Oval-279" class="st4" d="M168.4,129c1.3,0,2.3-1,2.3-2.3s-1-2.3-2.3-2.3s-2.3,1-2.3,2.3S167.1,129,168.4,129z"/>
			<path id="Oval-279_1_" class="st4" d="M189.2,129c1.3,0,2.3-1,2.3-2.3s-1-2.3-2.3-2.3c-1.3,0-2.3,1-2.3,2.3S188,129,189.2,129z"
				/>
			<g id="Group-7" transform="translate(174.255319, 179.468085)">
				<ellipse id="Oval-8" class="st12" cx="4.6" cy="4.6" rx="4.6" ry="4.6"/>
			</g>
			<g id="Group-12" transform="translate(102.021277, 192.127660)">
				<rect id="Rectangle-34" x="0" y="3.7" class="st4" width="34" height="7"/>
				<path id="Rectangle-3" class="st4" d="M6.5,0L6.5,0c0.7,0,1.3,0.6,1.3,1.3v3.2c0,0.7-0.6,1.3-1.3,1.3l0,0
					c-0.7,0-1.3-0.6-1.3-1.3V1.3C5.2,0.6,5.8,0,6.5,0z"/>
			</g>
			<rect id="Rectangle-32" x="63.3" y="215.2" class="st4" width="227.7" height="19.4"/>
			<g id="Group-2" transform="translate(221.914894, 160.851064)">
				<path id="Fill-80" class="st4" d="M4,28.1c-0.8,0-1.5,0.7-1.5,1.5v5.3c0,0.8,0.7,1.5,1.5,1.5h3.5c0.8,0,1.5-0.7,1.5-1.5v-5.3
					c0-0.8-0.7-1.5-1.5-1.5H4z M7.5,38.9H4c-2.2,0-3.9-1.8-3.9-4v-5.3c0-2.2,1.8-4,3.9-4h3.5c2.2,0,3.9,1.8,3.9,4v5.3
					C11.4,37.1,9.7,38.9,7.5,38.9L7.5,38.9z"/>
				<path id="Fill-81" class="st4" d="M22.8,43.7H9.2c-1.9,0-3.4-1.5-3.4-3.4V24.5c0-0.8,0.6-1.4,1.4-1.4h17.6
					c0.8,0,1.4,0.7,1.4,1.4v15.8C26.2,42.2,24.7,43.7,22.8,43.7"/>
				<path id="Fill-82" class="st13" d="M21.7,39.8L21.7,39.8c-1.2,0-2.3-1.2-2.3-2.7v-7.9c0-1.5,1-2.7,2.3-2.7
					c1.2,0,2.3,1.2,2.3,2.7v7.9C23.9,38.6,22.9,39.8,21.7,39.8"/>
			</g>
			<path id="Rectangle-28" class="st14" d="M54.7,203.3h245.9c1,0,1.8,0.8,1.8,1.8v8.6c0,1-0.8,1.8-1.8,1.8H54.7
				c-1,0-1.8-0.8-1.8-1.8v-8.6C52.9,204.1,53.7,203.3,54.7,203.3z"/>
			<g id="Group-9" transform="translate(64.787234, 133.297872)">
			</g>
		</g>
	</g>
</g>
</svg>
