<svg id="Layer_1" data-name="Layer 1" xmlns="http://www.w3.org/2000/svg" viewBox="0 0 47.58 48"><defs><style>.cls-1{fill-rule:evenodd;}</style></defs><title>logo</title><path class="cls-1" d="M6.09,9.34c-2.65,3.28-5,8-5.05,12.26-.09,4,1.7,7.69,5.81,11.05a17.91,17.91,0,0,1-5.86-5A24,24,0,0,0,14.76,46.23c7.16,3.29,6.89,1.2,2.64-4.28a40.57,40.57,0,0,0-6.51-6.34c4.48,3.09,9.4,6.4,12.28,12.75C23.89,32.52-4.27,25.41,6.09,9.34Z" transform="translate(-0.99 -0.42)"/><path class="cls-1" d="M42.71,32.66c4.12-3.36,5.91-7,5.81-11.05-.1-4.22-2.4-9-5.05-12.26,10.36,16.07-17.81,23.17-17.08,39,2.88-6.35,7.8-9.66,12.28-12.75a40.57,40.57,0,0,0-6.51,6.34c-4.26,5.49-4.52,7.57,2.64,4.28A24,24,0,0,0,48.57,27.69,17.92,17.92,0,0,1,42.71,32.66Z" transform="translate(-0.99 -0.42)"/><path class="cls-1" d="M24.78,31.19C20.55,18.29,8.21,17.66,8.21,7c-5.75,7.88-3.47,12.75,1,17.43A3.31,3.31,0,1,1,12.86,28c5.55,5.09,11.92,10.76,11.92,20.45,0-9.69,6.37-15.36,11.92-20.45a3.3,3.3,0,1,1,3.65-3.51c4.46-4.68,6.74-9.55,1-17.43C41.34,17.67,29,18.27,24.78,31.19Z" transform="translate(-0.99 -0.42)"/><circle cx="23.79" cy="17.92" r="3.91"/><path class="cls-1" d="M14.7,2.61l5.17,8.73a8.5,8.5,0,0,0-.67.53L11.8,4.21A23.93,23.93,0,0,1,14.7,2.61ZM9.24,6.1a17,17,0,0,0,.1,2.4l8.37,5q.24-.35.52-.68L10.39,5.19Q9.8,5.63,9.24,6.1ZM20.88.72l2.3,9.23q.42-.08.85-.12L23.93.42A24.18,24.18,0,0,0,20.88.72ZM39.17,5.19l-7.84,7.66a8.52,8.52,0,0,1,.52.68l8.37-5a16.89,16.89,0,0,0,.1-2.4Q39.76,5.63,39.17,5.19ZM15.72,17.7h.53c0-.29.06-.57.1-.85l-2.3-.59C14.6,16.76,15.15,17.23,15.72,17.7ZM12,14.18l4.68,1.34a8.43,8.43,0,0,1,.32-.79l-7.11-4A12.22,12.22,0,0,0,12,14.18ZM16.25,2l4.81,8.68a8.48,8.48,0,0,1,.79-.33L19.26,1A23.85,23.85,0,0,0,16.25,2Zm16.6,13.56,4.68-1.34a12.22,12.22,0,0,0,2.1-3.45l-7.11,4A8.28,8.28,0,0,1,32.85,15.52Zm.45,2.18h.53c.57-.47,1.13-.94,1.66-1.43l-2.3.59A8.52,8.52,0,0,1,33.31,17.71Zm1.55-15.1-5.17,8.73a8.53,8.53,0,0,1,.67.53l7.4-7.66A23.88,23.88,0,0,0,34.86,2.61ZM25.58.42l-.16,9.4a8.55,8.55,0,0,1,1,.13L28.68.72A24.19,24.19,0,0,0,25.58.42ZM30.3,1l-2.59,9.27a8.49,8.49,0,0,1,.79.33L33.31,2A23.87,23.87,0,0,0,30.3,1Z" transform="translate(-0.99 -0.42)"/></svg>