<?xml version="1.0" encoding="utf-8"?>
<!-- Generator: Adobe Illustrator 21.0.2, SVG Export Plug-In . SVG Version: 6.00 Build 0)  -->
<svg version="1.1" id="Layer_1" xmlns="http://www.w3.org/2000/svg" xmlns:xlink="http://www.w3.org/1999/xlink" x="0px" y="0px"
	 viewBox="0 0 150 100" style="enable-background:new 0 0 150 100;" xml:space="preserve">
<g>
	<polygon points="134.8,80.2 121.3,69.2 121.3,93.7 94.3,93.7 94.3,46.7 80.8,36.2 80.8,93.7 69.7,93.7 69.7,36.2 56.2,46.7 
		56.2,93.7 29.3,93.7 29.3,69.2 15.8,80.2 15.8,93.7 2.3,93.7 2.3,99 21.1,99 21.1,82.8 24,80.5 24,99 61.6,99 61.6,49.2 64.4,47 
		64.4,99 86.2,99 86.2,47 88.9,49.2 88.9,99 126.6,99 126.6,80.5 129.4,82.8 129.4,99 148.2,99 148.2,93.7 134.8,93.7 	"/>
	<polygon points="107.8,55 107.8,85.5 102.4,85.5 102.4,43.3 75.3,21.1 48.1,43.3 48.1,85.5 42.8,85.5 42.8,55 37.4,52.1 7.7,76.3 
		7.7,90.9 13.1,90.9 13.1,78.9 32,63.4 32,90.9 53.5,90.9 53.5,45.8 72.6,30.2 72.6,90.9 78,90.9 78,30.2 97,45.8 97,90.9 
		118.5,90.9 118.5,63.4 137.5,78.9 137.5,90.9 142.9,90.9 142.9,76.3 113.1,52.1 	"/>
</g>
</svg>
