<?xml version="1.0" encoding="UTF-8"?>
<svg width="23px" height="23px" viewBox="0 0 23 23" version="1.1" xmlns="http://www.w3.org/2000/svg" xmlns:xlink="http://www.w3.org/1999/xlink">
    <!-- Generator: Sketch 41.2 (35397) - http://www.bohemiancoding.com/sketch -->
    <title>magnifying-glass</title>
    <desc>Created with Sketch.</desc>
    <defs>
        <filter x="-50%" y="-50%" width="200%" height="200%" filterUnits="objectBoundingBox" id="filter-1">
            <feGaussianBlur stdDeviation="0.9" in="SourceGraphic"></feGaussianBlur>
        </filter>
        <path d="M13.225316,6.497245 C13.225316,10.0142019 10.3314266,12.8655026 6.76193848,12.8655026 C3.19245033,12.8655026 0.298560973,10.0142019 0.298560973,6.497245 C0.298560973,2.98028812 3.19245033,0.128987413 6.76193848,0.128987413 C10.3314266,0.128987413 13.225316,2.98028812 13.225316,6.497245" id="path-2"></path>
    </defs>
    <g id="Page-1" stroke="none" stroke-width="1" fill="none" fill-rule="evenodd">
        <g id="Artboard" transform="translate(-70.000000, -141.000000)">
            <g id="elements" transform="translate(64.000000, 17.000000)">
                <g id="magnifying-glass" transform="translate(4.000000, 121.000000)">
                    <g transform="translate(0.787234, 0.297872)">
                        <ellipse id="Oval-4" fill="#000000" opacity="0.159999996" filter="url(#filter-1)" cx="10.7112462" cy="12.463496" rx="7.3556231" ry="7.38840217"></ellipse>
                        <g id="Page-1" transform="translate(14.669005, 14.661931) rotate(-42.000000) translate(-14.669005, -14.661931) translate(6.669005, 2.161931)">
                            <path d="M14.4557111,7.70953272 C14.4557111,11.2264896 11.5618218,14.0777903 7.99233362,14.0777903 C4.42284547,14.0777903 1.52895611,11.2264896 1.52895611,7.70953272 C1.52895611,4.19257584 4.42284547,1.34127513 7.99233362,1.34127513 C11.5618218,1.34127513 14.4557111,4.19257584 14.4557111,7.70953272" id="Fill-4"></path>
                            <g opacity="0.400000006" transform="translate(1.230395, 1.212288)">
                                <mask id="mask-3" fill="white">
                                    <use xlink:href="#path-2"></use>
                                </mask>
                                <g id="Mask"></g>
                                <g mask="url(#mask-3)" id="Fill-1" fill="#6926E0">
                                    <g transform="translate(4.278839, 5.564077) rotate(42.000000) translate(-4.278839, -5.564077) translate(-7.721161, -11.435923)">
                                        <path d="M1.5720758e-13,32.7702396 C1.5720758e-13,33.2195368 0.356144298,33.5837642 0.808308173,33.5837642 L23.8827899,33.5837642 L23.8827899,-2.13162821e-14 L1.5720758e-13,-2.13162821e-14 L1.5720758e-13,32.7702396 Z"></path>
                                    </g>
                                </g>
                            </g>
                            <g id="Group-6" transform="translate(0.615198, 0.000000)">
                                <polygon id="Fill-1" fill="#CA2A74" points="5.98864427 17.4335456 8.32684245 17.4335456 8.32684245 13.6375421 5.98864427 13.6375421"></polygon>
                                <polygon id="Fill-1" fill="#EB3B8C" points="6.40029179 16.9830929 8.73848997 16.9830929 8.73848997 13.1870895 6.40029179 13.1870895"></polygon>
                                <path d="M8.93420353,24.8518982 L6.11324305,24.8518982 C5.90519441,24.8518982 5.73696584,24.6792671 5.73696584,24.4662329 L5.73696584,16.5128043 C5.73696584,16.2997701 5.90519441,16.127139 6.11324305,16.127139 L8.93420353,16.127139 C9.14180475,16.127139 9.31003332,16.2997701 9.31003332,16.5128043 L9.31003332,24.4662329 C9.31003332,24.6792671 9.14180475,24.8518982 8.93420353,24.8518982 L8.93420353,24.8518982 Z" id="Fill-2" fill="#FDAD0C"></path>
                                <path d="M6.61131522,24.8443594 L6.11496419,24.843356 C5.90691556,24.843356 5.73868699,24.6707249 5.73868699,24.4576907 L5.73868699,16.5042621 C5.73868699,16.291228 5.90691556,16.1185968 6.11496419,16.1185968 L6.61131522,16.1196002 L6.61131522,24.8443594 Z" id="Fill-2" fill="#F0A30A"></path>
                                <path d="M7.3770468,2.24720672 C4.3203113,2.24720672 1.83344535,4.69747409 1.83344535,7.70966474 C1.83344535,10.721415 4.3203113,13.1716824 7.3770468,13.1716824 C10.4337823,13.1716824 12.9210952,10.721415 12.9210952,7.70966474 C12.9210952,4.69747409 10.4337823,2.24720672 7.3770468,2.24720672 M7.37704657,14.9781013 C3.30913653,14.9781013 4.47416424e-05,11.7172677 4.47416424e-05,7.70966497 C4.47416424e-05,3.70162136 3.30913653,0.440787814 7.37704657,0.440787814 C11.4449566,0.440787814 14.7544958,3.70162136 14.7544958,7.70966497 C14.7544958,11.7172677 11.4449566,14.9781013 7.37704657,14.9781013" id="Fill-6" fill="#EB3B8C"></path>
                            </g>
                            <path d="M7.40729943,6.25810319 C7.40729943,6.25810319 9.86359805,4.75408114 12.1161433,6.33106395 C13.0696778,6.99862316 13.5984356,7.89247545 13.8511992,8.60725856" id="Line" stroke="#FFFFFF" stroke-width="0.81" stroke-linecap="round" opacity="0.300837862" transform="translate(10.629249, 7.109006) rotate(61.000000) translate(-10.629249, -7.109006) "></path>
                        </g>
                    </g>
                </g>
            </g>
        </g>
    </g>
</svg>