<?xml version="1.0" encoding="utf-8"?>
<!-- Generator: Adobe Illustrator 21.0.2, SVG Export Plug-In . SVG Version: 6.00 Build 0)  -->
<svg version="1.1" id="Layer_1" xmlns="http://www.w3.org/2000/svg" xmlns:xlink="http://www.w3.org/1999/xlink" x="0px" y="0px"
	 viewBox="0 0 32 32" style="enable-background:new 0 0 32 32;" xml:space="preserve">
<style type="text/css">
	.st0{fill:#E7001A;}
	.st1{fill:#F49B1C;}
	.st2{opacity:0.3;fill:#E7001A;enable-background:new    ;}
</style>
<title>icon-32x32-mastercard</title>
<desc>Created with Sketch.</desc>
<g id="ALL">
	<g id="Payment-Method-icons" transform="translate(-416.000000, -758.000000)">
		<g id="Group-2" transform="translate(416.000000, 758.000000)">
			<g id="icon-32x32-mastercard">
				<path id="Rectangle-15" d="M16,0L16,0c8.8,0,16,7.2,16,16v0c0,8.8-7.2,16-16,16h0C7.2,32,0,24.8,0,16v0C0,7.2,7.2,0,16,0z"/>
				<g id="Group-7" transform="translate(6.000000, 10.000000)">
					<ellipse id="Oval-2" class="st0" cx="6" cy="6" rx="6" ry="6"/>
					<ellipse id="Oval-2_1_" class="st1" cx="14" cy="6" rx="6" ry="6"/>
					<path id="Combined-Shape" class="st2" d="M10,1.5c1.2,1.1,2,2.7,2,4.5c0,1.7-0.8,3.3-2,4.4C8.8,9.4,8,7.8,8,6.1
						C8,4.3,8.8,2.6,10,1.5z"/>
				</g>
			</g>
		</g>
	</g>
</g>
</svg>
