<?xml version="1.0" encoding="utf-8"?>
<!-- Generator: Adobe Illustrator 21.0.2, SVG Export Plug-In . SVG Version: 6.00 Build 0)  -->
<svg version="1.1" id="Layer_1" xmlns="http://www.w3.org/2000/svg" xmlns:xlink="http://www.w3.org/1999/xlink" x="0px" y="0px"
	 viewBox="0 0 32 32" style="enable-background:new 0 0 32 32;" xml:space="preserve">
<style type="text/css">
	.st0{fill:#FFFFFF;stroke:#000000;stroke-width:2;stroke-opacity:0.1;}
	.st1{fill:#009DDD;}
	.st2{fill:#202C69;}
	.st3{fill:#1F3A85;}
</style>
<title>icon-32x32-paypal</title>
<desc>Created with Sketch.</desc>
<g id="ALL">
	<g id="Payment-Method-icons" transform="translate(-1352.000000, -758.000000)">
		<g id="Group-2" transform="translate(416.000000, 758.000000)">
			<g id="icon-32x32-paypal" transform="translate(936.000000, 0.000000)">
				<g id="Rectangle-15">
					<path id="path-1_1_" class="st0" d="M16,0L16,0c8.8,0,16,7.2,16,16l0,0c0,8.8-7.2,16-16,16l0,0C7.2,32,0,24.8,0,16l0,0
						C0,7.2,7.2,0,16,0z"/>
				</g>
				<g id="Group-16" transform="translate(9.000000, 7.000000)">
					<path id="Shape" class="st1" d="M13.2,4.4L13.2,4.4L13.2,4.4c0,0.1,0,0.2-0.1,0.3C12.4,8.5,10,9.8,6.9,9.8H5.3
						c-0.4,0-0.7,0.3-0.8,0.7l0,0l0,0l-0.8,5.3l-0.2,1.5c0,0.3,0.2,0.5,0.4,0.5h2.8c0.3,0,0.6-0.2,0.7-0.6v-0.1l0.5-3.5v-0.2
						C8,13,8.3,12.8,8.6,12.8H9c2.7,0,4.9-1.1,5.5-4.4C14.8,7,14.6,5.8,14,5C13.8,4.8,13.5,4.6,13.2,4.4z"/>
					<path id="Shape_1_" class="st2" d="M12.4,3c-0.1,0-0.3-0.1-0.4-0.1c-0.1,0-0.3-0.1-0.4-0.1c-0.5-0.1-1-0.1-1.6-0.1H5.3
						c-0.1,0-0.2,0-0.3,0.1C4.7,2.9,4.6,3.2,4.5,3.5l-1,7.4v0.2c0.1-0.5,0.4-0.9,0.9-0.9h1.8c3.5,0,6.3-1.6,7.1-6.4
						c0-0.1,0-0.3,0.1-0.4c-0.2-0.1-0.4-0.2-0.7-0.3C12.6,3.1,12.5,3.1,12.4,3z"/>
					<path id="Shape_2_" class="st3" d="M5.5,4.2c0-0.2,0.2-0.4,0.4-0.5c0.1,0,0.2-0.1,0.3-0.1h4.2c0.5,0,1,0,1.4,0.1
						c0.1,0,0.2,0,0.4,0.1c0.1,0,0.2,0.1,0.3,0.1s0.1,0,0.2,0C12.9,4,13.1,4,13.3,4.1c0.2-1.3,0-2.2-0.7-3C11.8,0.4,10.3,0,8.4,0H3
						C2.6,0,2.3,0.3,2.3,0.6L0,14.2c0,0.3,0.2,0.5,0.5,0.5h3.3l0.8-5.1L5.5,4.2z"/>
				</g>
			</g>
		</g>
	</g>
</g>
</svg>
