<?xml version="1.0" encoding="UTF-8"?>
<svg width="24px" height="26px" viewBox="0 0 24 26" version="1.1" xmlns="http://www.w3.org/2000/svg" xmlns:xlink="http://www.w3.org/1999/xlink">
    <!-- Generator: Sketch 41.2 (35397) - http://www.bohemiancoding.com/sketch -->
    <title>pie-chart</title>
    <desc>Created with Sketch.</desc>
    <defs></defs>
    <g id="Page-1" stroke="none" stroke-width="1" fill="none" fill-rule="evenodd">
        <g id="Artboard" transform="translate(-90.000000, -55.000000)">
            <g id="elements" transform="translate(64.000000, 17.000000)">
                <g id="pie-chart" transform="translate(26.000000, 36.000000)">
                    <g transform="translate(0.106383, 0.617021)">
                        <path d="M11.7347298,8.1623449 C8.19497157,8.1623449 5.31514651,11.055949 5.31514651,14.6126439 C5.31514651,18.1693388 8.19497157,21.0635879 11.7347298,21.0635879 C15.274488,21.0635879 18.1543131,18.1693388 18.1543131,14.6126439 C18.1543131,11.055949 15.274488,8.1623449 11.7347298,8.1623449 M7.0212765e-05,14.6126137 C7.0212765e-05,8.11154983 5.26392128,2.82180739 11.7347298,2.82180739 C18.2055383,2.82180739 23.4693894,8.11154983 23.4693894,14.6126137 C23.4693894,21.114383 18.2055383,26.4034199 11.7347298,26.4034199 C5.26392128,26.4034199 7.0212765e-05,21.114383 7.0212765e-05,14.6126137 Z" id="Fill-1" fill="#EB3B8C"></path>
                        <path d="M7.0212765e-05,14.6128253 C7.0212765e-05,8.11105599 5.26392128,2.82201904 11.7347298,2.82201904 L11.7347298,8.16348154 C8.46204392,8.16348154 5.31772565,10.8180086 5.31772565,14.6128253 C5.31772565,18.407642 8.60500644,21.0423246 11.7347298,21.0423246 C14.8644531,21.0423246 18.1180134,18.5028813 18.1180134,14.6128253 L23.4693894,14.6128253 C23.4693894,21.1145946 18.2055383,26.4036316 11.7347298,26.4036316 C5.26392128,26.4036316 7.0212765e-05,21.1145946 7.0212765e-05,14.6128253 Z" id="Fill-4" fill="#FFC400"></path>
                        <path d="M24.4012495,3.1503958 C12.1493906,0.979725997 10.1568117,13.3127609 10.1568117,13.3127609 L15.7842995,14.3097866 C16.1632557,12.1503364 17.8906517,8.24975918 23.4135704,8.77860294 L24.4012495,3.1503958 Z" id="Fill-7-Copy" fill="#EB3B8C" transform="translate(17.279031, 8.601962) rotate(80.000000) translate(-17.279031, -8.601962) "></path>
                        <path d="M11.7918119,2.11646137 C7.10791833,2.11646137 2.58242553,5.09379615 0.70212766,9.0903807 L5.93662992,11.8633275 C7.21257896,9.56291583 9.00015237,8.16950987 11.7918119,8.16950987 L11.7918119,2.11646137 Z" id="Fill-7" fill="#FFEC00"></path>
                    </g>
                </g>
            </g>
        </g>
    </g>
</svg>