<?xml version="1.0" encoding="utf-8"?>
<!-- Generator: Adobe Illustrator 22.1.0, SVG Export Plug-In . SVG Version: 6.00 Build 0)  -->
<svg version="1.1" id="Ebene_1" xmlns="http://www.w3.org/2000/svg" xmlns:xlink="http://www.w3.org/1999/xlink" x="0px" y="0px"
	 viewBox="0 0 451.9 113.9" style="enable-background:new 0 0 451.9 113.9;" xml:space="preserve">
<style type="text/css">
	.st0{fill:#FFFFFF;}
</style>
<title>Badge / en_gb / pay_now / descriptive /pink</title>
<desc>Created with Sketch.</desc>
<g id="Badges">
	<g id="UK" transform="translate(-24.000000, -116.000000)">
		<g id="Badge-_x2F_-en_x5F_gb-_x2F_-pay_x5F_now-_x2F_-descriptive-_x2F_pink" transform="translate(24.000000, 116.000000)">
			<path id="path66" class="st0" d="M150.5,18.8c-6.1,0-11.9,1.4-17.5,4c-7.9,3.7-15,10-20.9,18.2c-3.8,5.4-7,11.6-9.6,18.6
				c-4.8,13.1-4.7,23.8,0.2,30.8c2.8,4,8.6,8.7,20.3,8.7h0c21.4,0,37.4-14,47.5-41.7c2.7-7.3,6.2-21-0.2-30.2
				C166.4,21.7,159.8,18.8,150.5,18.8L150.5,18.8z M279.7,18.8c-6.1,0-11.9,1.4-17.5,4c-7.9,3.7-15,10-20.9,18.2
				c-3.8,5.4-7,11.6-9.6,18.6c-4.8,13.1-4.7,23.8,0.2,30.8c2.8,4,8.6,8.7,20.3,8.7h0c21.4,0,37.4-14,47.5-41.7
				c2.7-7.3,6.2-21-0.2-30.2C295.6,21.7,289,18.8,279.7,18.8z M81.7,19.9c-7,0-13.9,0-20,3.1c-6.1,3.1-11.5,9.3-15.7,21.8
				c-0.9,2.7-1.4,5-1.4,7c-0.1,2,0.3,3.7,1,5.2c0.9,1.8,2.5,3.5,4.4,4.9c1.9,1.4,4.2,2.6,6.6,3.4c0.1,0,1.4,0.4,2.9,0.8
				c1.6,0.4,3.4,1,4.5,1.3c0.7,0.2,1.4,0.5,2.1,0.9c0.7,0.4,1.3,0.9,1.7,1.7c0.3,0.5,0.4,1,0.4,1.6c0,0.6-0.1,1.2-0.3,1.9
				c-0.6,1.7-1.4,2.8-3.1,3.4c-1.6,0.7-4.1,0.9-7.8,0.9h-46l-7.3,20H53c4.6,0,13.1,0,21.2-3.5C82.4,91,90.2,84,93.5,70.2
				c1.2-5.2,0.9-9.4-1.2-12.8c-2-3.3-5.7-5.7-11.1-7.3c0,0-1.2-0.3-2.6-0.8c-1.4-0.4-3-0.9-3.9-1.1c-1.4-0.4-2.4-1.2-3.1-2.2
				c-0.6-1-0.8-2.2-0.5-3.5c0.4-1.3,1.3-2.3,2.6-3.1c1.3-0.7,3-1.1,5-1.1h28.6c0.2-0.3,0.4-0.6,0.6-0.9c5.2-7.4,11.6-13.4,18.5-17.6
				H81.7z M210.3,19.9c-12.7,0-22.2,6.4-26.7,18.5L162,97.9h23.7l11.1-30.5l20.9,0l6-16.4l-20.9,0l3.4-9.5c0.7-1.7,2.4-3,4.8-3
				c1.4,0,16.7,0,24.7,0c0.2-0.3,0.4-0.6,0.6-0.9c5.2-7.4,12.6-13.4,19.6-17.6L210.3,19.9L210.3,19.9z M320.3,20l-28.4,77.9H316
				l10.3-27.4c0.5,1.1,6.6,27.4,6.6,27.4h25.3c0,0-4.6-19.3-8-27.1c-0.9-2-1.8-4.3-3-6.1c7.2-2.7,17.5-8.4,21.8-19.9
				c2.6-7.1,2.5-12.9-0.4-17.1c-3.6-5.1-10.8-7.6-22.1-7.6H320.3L320.3,20z M369.7,20c1.5,1.2,2.8,2.6,3.9,4.2
				c2.8,4,3.9,8.8,3.2,14.3h14.4l-21.6,59.4h21.6l21.6-59.4h27.8l6.7-18.5H369.7z M336.1,36.1h4c7.3,0,10,2.1,7.5,8.8
				c-2.3,6.2-6.5,10.1-14.4,10.1h0l-4.1,0L336.1,36.1L336.1,36.1z M144.8,36.5L144.8,36.5c7.4,0,9.1,4.3,2.6,22.1h0
				c-6.7,18.3-11.5,22.9-18.8,22.9h0c-7.1,0-9.6-4.5-2.9-22.7C130.6,45.1,137,36.5,144.8,36.5L144.8,36.5z M274,36.5L274,36.5
				c7.4,0,9.1,4.3,2.6,22.1c-6.7,18.3-11.5,22.9-18.8,22.9h0c-7.1,0-9.6-4.5-2.9-22.7C259.8,45.1,266.2,36.5,274,36.5L274,36.5z"/>
		</g>
	</g>
</g>
</svg>
