<?xml version="1.0" encoding="UTF-8"?>
<svg width="34px" height="31px" viewBox="0 0 34 31" version="1.1" xmlns="http://www.w3.org/2000/svg" xmlns:xlink="http://www.w3.org/1999/xlink">
    <!-- Generator: Sketch 41.2 (35397) - http://www.bohemiancoding.com/sketch -->
    <title>reports</title>
    <desc>Created with Sketch.</desc>
    <defs>
        <polygon id="path-1" points="10.7254269 23.8812253 21.2740618 23.8812253 21.2740618 0.252979081 0.176792108 0.252979081 0.176792108 23.8812253 10.7254269 23.8812253"></polygon>
        <polygon id="path-3" points="21.2739836 0.283336571 0.176948423 0.283336571 0.176948423 4.30048248 21.2739836 4.30048248 21.2739836 0.283336571"></polygon>
        <polygon id="path-5" points="11.5096195 0.283336571 0.000156314861 0.283336571 0.000156314861 4.30048248 11.5096195 4.30048248 11.5096195 0.283336571"></polygon>
    </defs>
    <g id="Page-1" stroke="none" stroke-width="1" fill="none" fill-rule="evenodd">
        <g id="Artboard" transform="translate(-252.000000, -118.000000)">
            <g id="elements" transform="translate(64.000000, 17.000000)">
                <g id="reports" transform="translate(188.000000, 100.000000)">
                    <g transform="translate(19.059717, 17.371143) rotate(8.000000) translate(-19.059717, -17.371143) translate(2.304718, 2.850144)">
                        <g id="Group-22" transform="translate(0.000000, 0.121592)">
                            <g id="Group-3" transform="translate(11.332827, 4.047665)">
                                <mask id="mask-2" fill="white">
                                    <use xlink:href="#path-1"></use>
                                </mask>
                                <g id="Clip-2"></g>
                                <path d="M0.176792108,22.6669257 L17.4589549,22.6669257 C18.014499,22.6669257 18.464693,22.1566364 18.464693,21.5273181 L18.464693,0.252979081 L0.176792108,0.252979081 L0.176792108,22.6669257 Z" id="Fill-1" fill="#FFFFFF" mask="url(#mask-2)"></path>
                            </g>
                            <path d="M0,4.30048248 L0,25.6124033 C0,26.2474086 0.519356126,26.7623091 1.15985627,26.7623091 L11.5094632,26.7623091 L11.5094632,4.30048248 L0,4.30048248 Z" id="Fill-4" fill="#EC3B8C"></path>
                            <g id="Group-8" transform="translate(11.332827, 0.000000)">
                                <mask id="mask-4" fill="white">
                                    <use xlink:href="#path-3"></use>
                                </mask>
                                <g id="Clip-7"></g>
                                <path d="M17.4592837,0.283174665 L0.176948423,0.283174665 L0.176948423,4.30048248 L18.464693,4.30048248 L18.464693,1.48452173 C18.464693,0.821109383 18.0144945,0.283174665 17.4592837,0.283174665" id="Fill-6" fill="#492B7E" mask="url(#mask-4)"></path>
                            </g>
                            <g id="Group-11">
                                <mask id="mask-6" fill="white">
                                    <use xlink:href="#path-5"></use>
                                </mask>
                                <g id="Clip-10"></g>
                                <path d="M11.5096195,0.283174665 L1.16001258,0.283174665 C0.51951244,0.283174665 0.000156314861,0.821109383 0.000156314861,1.48452173 L0.000156314861,4.30048248 L11.5096195,4.30048248 L11.5096195,0.283174665 Z" id="Fill-9" fill="#492B7E" mask="url(#mask-6)"></path>
                            </g>
                            <path d="M8.78415269,19.83356 L2.16109203,19.83356" id="Fill-12" stroke="#D82477" stroke-width="1.49688" stroke-linecap="round" fill="#EB3B8C"></path>
                            <path d="M2.16109203,17.7085357 L8.78415269,17.7085357" id="Fill-14" stroke="#D82477" stroke-width="1.49688" stroke-linecap="round" fill="#EB3B8C"></path>
                            <path d="M8.78415269,21.9585843 L2.16109203,21.9585843" id="Fill-16" stroke="#D82477" stroke-width="1.49688" stroke-linecap="round" fill="#EB3B8C"></path>
                            <polygon id="Fill-18" fill="#EEF2F4" points="14.241847 9.22058156 27.1769017 9.22058156 27.1769017 7.85328022 14.241847 7.85328022"></polygon>
                            <polygon id="Fill-20" fill="#EEF2F4" points="14.241847 12.0126611 27.1769017 12.0126611 27.1769017 10.6453597 14.241847 10.6453597"></polygon>
                            <polygon id="Fill-21" fill="#EEF2F4" points="14.2414562 14.9561233 22.8258776 14.9561233 22.8258776 13.588822 14.2414562 13.588822"></polygon>
                        </g>
                        <g id="Group-25" transform="translate(14.166034, 18.943236)" fill="#FFDA00">
                            <path d="M0.458956687,0.292646201 C0.247082915,0.292646201 0.0754219204,0.453338514 0.0754219204,0.651269347 L0.0754219204,0.651269347 L0.0754219204,2.60143449 C0.0754219204,2.79977009 0.247082915,2.9604624 0.458956687,2.9604624 L0.458956687,2.9604624 L9.19075047,2.9604624 C9.40262424,2.9604624 9.57428523,2.79977009 9.57428523,2.60143449 L9.57428523,2.60143449 L9.57428523,0.651269347 C9.57428523,0.453338514 9.40262424,0.292646201 9.19075047,0.292646201 L9.19075047,0.292646201 L0.458956687,0.292646201 Z" id="Fill-23"></path>
                        </g>
                        <g id="Group-30" transform="translate(1.953936, 7.407389)">
                            <path d="M3.32426999,0.345711093 C1.60363416,0.382949614 0.219466065,1.83606146 0.219466065,3.62715335 C0.219466065,5.44131694 1.63919579,6.91183375 3.39070381,6.91183375 C5.14221182,6.91183375 6.56233234,5.44131694 6.56233234,3.62715335 L3.39070381,3.62715335 C3.39070381,3.62715335 3.32309763,1.64744025 3.32426999,0.345711093" id="Fill-26" fill="#FFDA00"></path>
                            <path d="M3.39086012,0.342230101 C3.36819447,0.342230101 3.34670117,0.345063467 3.32442631,0.345873 C3.32325394,1.64760216 3.39086012,3.62691049 3.39086012,3.62691049 L6.56209786,3.62691049 C6.56209786,1.81274691 5.14236814,0.342230101 3.39086012,0.342230101" id="Fill-28" fill="#FDAD0C"></path>
                        </g>
                    </g>
                </g>
            </g>
        </g>
    </g>
</svg>