<?xml version="1.0" encoding="utf-8"?>
<!-- Generator: Adobe Illustrator 21.0.2, SVG Export Plug-In . SVG Version: 6.00 Build 0)  -->
<svg version="1.1" id="Layer_1" xmlns="http://www.w3.org/2000/svg" xmlns:xlink="http://www.w3.org/1999/xlink" x="0px" y="0px"
	 viewBox="0 0 313.9 134.8" style="enable-background:new 0 0 313.9 134.8;" xml:space="preserve">
<style type="text/css">
	.st0{fill:#313E58;}
	.st1{fill:#3B8EDE;}
	.st2{fill:#FFFFFF;}
</style>
<path id="Rounded_Rectangle_3" class="st0" d="M0,54.6l47.2-20.1l36.4,26.7l36.5-29.8l37.1,8l36.3-8l36.2,6.7l36.5-38l47.7,31.3
	v90.2c-0.1,7.4-6.1,13.3-13.5,13.2h-287c-7.4,0.1-13.4-5.8-13.5-13.2V54.6L0,54.6z"/>
<path id="Rounded_Rectangle_3_1_" class="st1" d="M0,118.2l47.2-20.1l36.4,6.7l36.5-19.8l37.1,8l36.3-28l36.2,6.7l36.5-38l47.7-8.7
	v96.2c-0.1,7.4-6.1,13.3-13.5,13.2h-287c-7.4,0.1-13.4-5.9-13.5-13.2V118.2L0,118.2z"/>
<circle id="BG" class="st2" cx="195.1" cy="66.3" r="6.9"/>
</svg>
