<?xml version="1.0" encoding="utf-8"?>
<!-- Generator: Adobe Illustrator 21.0.2, SVG Export Plug-In . SVG Version: 6.00 Build 0)  -->
<svg version="1.1" id="Layer_1" xmlns="http://www.w3.org/2000/svg" xmlns:xlink="http://www.w3.org/1999/xlink" x="0px" y="0px"
	 viewBox="0 0 32 32" style="enable-background:new 0 0 32 32;" xml:space="preserve">
<style type="text/css">
	.st0{fill:#007AFF;}
	.st1{fill:#FFCC00;}
</style>
<title>icon-32x32-sepa</title>
<desc>Created with Sketch.</desc>
<g id="ALL">
	<g id="Payment-Method-icons" transform="translate(-1064.000000, -758.000000)">
		<g id="Group-2" transform="translate(416.000000, 758.000000)">
			<g id="icon-32x32-sepa" transform="translate(648.000000, 0.000000)">
				<path id="Rectangle-15" class="st0" d="M16,0L16,0c8.8,0,16,7.2,16,16v0c0,8.8-7.2,16-16,16h0C7.2,32,0,24.8,0,16v0
					C0,7.2,7.2,0,16,0z"/>
				<path id="Fill-1" class="st1" d="M17.3,10.9c1.6,0,2.9,0.7,3.9,1.9L22,11c-1.3-1.2-3-2-4.9-2c-3,0-5.5,1.8-6.6,4.4H8.9l-0.9,2h2
					c0,0.2,0,0.4,0,0.6c0,0.2,0,0.5,0,0.7H9l-0.9,2h2.5c1.1,2.5,3.6,4.3,6.5,4.3c1.5,0,2.8-0.4,4-1.2v-2.5c-0.9,1.1-2.2,1.7-3.7,1.7
					c-1.7,0-3.3-0.9-4.2-2.3h5.2l0.9-2h-6.9c0-0.2-0.1-0.5-0.1-0.8c0-0.2,0-0.3,0-0.5h7.5l0.9-2H13C13.9,11.9,15.5,10.9,17.3,10.9"
					/>
			</g>
		</g>
	</g>
</g>
</svg>
