<?xml version="1.0" encoding="utf-8"?>
<!-- Generator: Adobe Illustrator 21.0.2, SVG Export Plug-In . SVG Version: 6.00 Build 0)  -->
<svg version="1.1" id="Layer_1" xmlns="http://www.w3.org/2000/svg" xmlns:xlink="http://www.w3.org/1999/xlink" x="0px" y="0px"
	 viewBox="0 0 32 32" style="enable-background:new 0 0 32 32;" xml:space="preserve">
<style type="text/css">
	.st0{fill:#FF9500;}
	.st1{fill:#FFFFFF;}
</style>
<title>icon-32x32-sofort</title>
<desc>Created with Sketch.</desc>
<g id="ALL">
	<g id="Payment-Method-icons" transform="translate(-920.000000, -758.000000)">
		<g id="Group-2" transform="translate(416.000000, 758.000000)">
			<g id="icon-32x32-sofort" transform="translate(504.000000, 0.000000)">
				<path id="Rectangle-15" class="st0" d="M16,0L16,0c8.8,0,16,7.2,16,16v0c0,8.8-7.2,16-16,16h0C7.2,32,0,24.8,0,16v0
					C0,7.2,7.2,0,16,0z"/>
				<path id="path66-path" class="st1" d="M20,9c-1.3,0-2.5,0-3.6,0.6c-1.1,0.6-2.1,1.7-2.8,3.9c-0.2,0.5-0.2,0.9-0.3,1.3
					c0,0.4,0.1,0.7,0.2,0.9c0.2,0.3,0.4,0.6,0.8,0.9c0.3,0.3,0.7,0.5,1.2,0.6c0,0,0.2,0.1,0.5,0.2c0.3,0.1,0.6,0.2,0.8,0.2
					c0.1,0,0.3,0.1,0.4,0.2c0.1,0.1,0.2,0.2,0.3,0.3c0,0.1,0.1,0.2,0.1,0.3c0,0.1,0,0.2-0.1,0.3c-0.1,0.3-0.3,0.5-0.6,0.6
					c-0.3,0.1-0.7,0.2-1.4,0.2H7.3L6,23h8.8c0.8,0,2.4,0,3.8-0.6c1.5-0.6,2.9-1.9,3.5-4.3c0.2-0.9,0.2-1.7-0.2-2.3
					c-0.4-0.6-1-1-2-1.3c0,0-0.2-0.1-0.5-0.1c-0.3-0.1-0.5-0.2-0.7-0.2c-0.2-0.1-0.4-0.2-0.5-0.4c-0.1-0.2-0.1-0.4-0.1-0.6
					c0.1-0.2,0.2-0.4,0.5-0.6c0.2-0.1,0.5-0.2,0.9-0.2h5.1c0-0.1,0.1-0.1,0.1-0.2c0.9-1.3,2.1-2.4,3.3-3.2H20L20,9z"/>
			</g>
		</g>
	</g>
</g>
</svg>
