<?xml version="1.0" encoding="utf-8"?>
<!-- Generator: Adobe Illustrator 21.0.2, SVG Export Plug-In . SVG Version: 6.00 Build 0)  -->
<svg version="1.1" id="Layer_1" xmlns="http://www.w3.org/2000/svg" xmlns:xlink="http://www.w3.org/1999/xlink" x="0px" y="0px"
	 viewBox="0 0 584 292" style="enable-background:new 0 0 584 292;" xml:space="preserve">
<style type="text/css">
	.st0{fill:#FFFFFF;}
	.st1{opacity:0.9;}
	.st2{opacity:0.9;fill:#E5E5EA;enable-background:new    ;}
	.st3{fill:#E7001A;}
	.st4{fill:#F49B1C;}
	.st5{fill:#FF5F00;}
	.st6{fill:#333333;}
	.st7{font-family:'MyriadPro-Bold';}
	.st8{font-size:12px;}
	.st9{font-family:'MyriadPro-Regular';}
	.st10{font-size:10px;}
	.st11{filter:url(#filter-3);}
	.st12{font-size:20px;}
	.st13{font-size:13px;}
	.st14{opacity:0.9;fill:#4CD964;enable-background:new    ;}
	.st15{font-size:14px;}
</style>
<filter  filterUnits="objectBoundingBox" height="252.2%" id="filter-3" width="119.6%" x="-9.8%" y="-54.3%">
	<feOffset  dx="0" dy="15" in="SourceAlpha" result="shadowOffsetOuter1"></feOffset>
	<feGaussianBlur  in="shadowOffsetOuter1" result="shadowBlurOuter1" stdDeviation="15"></feGaussianBlur>
	
		<feColorMatrix  in="shadowBlurOuter1" type="matrix" values="0 0 0 0 0.770966199   0 0 0 0 0.432278771   0 0 0 0 0.112599881  0 0 0 0.4 0">
		</feColorMatrix>
</filter>
<g>
	<path id="path-1" class="st0" d="M29.7,101h525.6c3.2,0,5.7,2.6,5.7,5.7v57.6c0,3.2-2.6,5.7-5.7,5.7H29.7c-3.2,0-5.7-2.6-5.7-5.7
		v-57.6C24,103.6,26.6,101,29.7,101z"/>
</g>
<title>product-cover-recurring-homepage</title>
<desc>Created with Sketch.</desc>
<g id="Assets">
	<g id="product-cover-recurring-homepage">
		<g id="Group-3" transform="translate(24.000000, 16.000000)">
			<g id="Group-9" transform="translate(27.000000, 0.000000)" class="st1">
				<g id="Group-68" transform="translate(0.000000, 174.000000)">
					<path id="Mask" class="st0" d="M5.9,0h471c3.3,0,6,2.7,6,6v53c0,3.3-2.7,6-6,6H5.9c-3.3,0-6-2.7-6-6V6C-0.1,2.6,2.6,0,5.9,0z"
						/>
					<ellipse id="Oval-4" class="st2" cx="22.9" cy="33" rx="3" ry="3"/>
					<g id="Group-7" transform="translate(432.000000, 14.000000)">
						<path id="Rectangle-15" d="M5.6,0h25.6c3.2,0,5.7,2.6,5.7,5.7v25.6c0,3.2-2.6,5.7-5.7,5.7H5.6c-3.2,0-5.7-2.6-5.7-5.7V5.7
							C-0.1,2.5,2.5,0,5.6,0z"/>
						<ellipse id="Oval-2" class="st3" cx="14.4" cy="19" rx="7.5" ry="7"/>
						<ellipse id="Oval-2_1_" class="st4" cx="23.4" cy="19" rx="7.5" ry="7"/>
						<path id="Combined-Shape" class="st5" d="M18.9,12.5c1.8,1.3,3,3.3,3,5.5c0,2.2-1.2,4.1-3,5.4c-1.8-1.3-3-3.2-3-5.4
							C15.9,15.8,17.1,13.8,18.9,12.5z"/>
					</g>
				</g>
				<g id="Group-68_1_">
					<path id="Mask_1_" class="st0" d="M5.9,0h471c3.3,0,6,2.7,6,6v53c0,3.3-2.7,6-6,6H5.9c-3.3,0-6-2.7-6-6V6C-0.1,2.6,2.6,0,5.9,0
						z"/>
					<ellipse id="Oval-4_1_" class="st2" cx="22.9" cy="33" rx="3" ry="3"/>
					<g id="Group-7_1_" transform="translate(432.000000, 14.000000)">
						<path id="Rectangle-15_1_" d="M5.6,0h25.6c3.2,0,5.7,2.6,5.7,5.7v25.6c0,3.2-2.6,5.7-5.7,5.7H5.6c-3.2,0-5.7-2.6-5.7-5.7V5.7
							C-0.1,2.5,2.5,0,5.6,0z"/>
						<ellipse id="Oval-2_2_" class="st3" cx="14.4" cy="19" rx="7.5" ry="7"/>
						<ellipse id="Oval-2_3_" class="st4" cx="23.4" cy="19" rx="7.5" ry="7"/>
						<path id="Combined-Shape_1_" class="st5" d="M18.9,12.5c1.8,1.3,3,3.3,3,5.5c0,2.2-1.2,4.1-3,5.4c-1.8-1.3-3-3.2-3-5.4
							C15.9,15.8,17.1,13.8,18.9,12.5z"/>
					</g>
					<text transform="matrix(1 0 0 1 361.3782 29.2702)" class="st6 st7 st8">24 August</text>
					<text transform="matrix(1 0 0 1 385.7962 43.5856)" class="st9 st10">€ 50,00</text>
				</g>
				<text transform="matrix(1 0 0 1 355.4401 204.5748)" class="st6 st7 st8">24 Oktober</text>
				<text transform="matrix(1 0 0 1 385.0494 218.5755)" class="st9 st10">€ 50,00</text>
			</g>
			<g id="Group-4" transform="translate(0.000000, 85.000000)">
				<g id="Group-13">
					<g id="Mask_2_">
						<g class="st11">
							<path id="path-1_3_" d="M5.6,0h525.6c3.2,0,5.7,2.6,5.7,5.7v57.6c0,3.2-2.6,5.7-5.7,5.7H5.6c-3.2,0-5.7-2.6-5.7-5.7V5.7
								C-0.1,2.5,2.5,0,5.6,0z"/>
						</g>
						<g>
							<path id="path-1_2_" class="st0" d="M5.6,0h525.6c3.2,0,5.7,2.6,5.7,5.7v57.6c0,3.2-2.6,5.7-5.7,5.7H5.6
								c-3.2,0-5.7-2.6-5.7-5.7V5.7C-0.1,2.5,2.5,0,5.6,0z"/>
						</g>
					</g>
				</g>
				<g id="Group-2_2_" transform="translate(42.000000, 19.000000)">
					<text transform="matrix(1 0 0 1 -1.073 13.2003)" class="st7 st12">P. Müller</text>
					<text transform="matrix(1 0 0 1 24.4331 -72.0375)" class="st6 st7 st13">P. Müller</text>
					<text transform="matrix(1 0 0 1 25.3463 102.1225)" class="st6 st7 st13">P. Müller</text>
				</g>
				<ellipse id="Oval-4_2_" class="st14" cx="22.9" cy="35" rx="3" ry="3"/>
				<g id="Group-67" transform="translate(482.000000, 16.000000)">
					<path id="Rectangle-15_2_" d="M5.6,0h25.6c3.2,0,5.7,2.6,5.7,5.7v23.6c0,3.2-2.6,5.7-5.7,5.7H5.6c-3.2,0-5.7-2.6-5.7-5.7V5.7
						C-0.1,2.5,2.5,0,5.6,0z"/>
					<g id="Group-66" transform="translate(6.000000, 10.000000)">
						<ellipse id="Oval-2_4_" class="st3" cx="8.4" cy="7.5" rx="7.5" ry="6.5"/>
						<ellipse id="Oval-2_5_" class="st4" cx="17.4" cy="7.5" rx="7.5" ry="6.5"/>
						<path id="Combined-Shape_2_" class="st5" d="M12.9,1.5c1.8,1.3,3,3.3,3,5.5c0,2.2-1.2,4.1-3,5.4c-1.8-1.3-3-3.2-3-5.4
							C9.9,4.8,11.1,2.8,12.9,1.5z"/>
					</g>
				</g>
				<text transform="matrix(1 0 0 1 373.7366 31.3898)" class="st7 st15">24 September</text>
				<text transform="matrix(1 0 0 1 431.7366 45.462)" class="st9 st10">€ 50,00</text>
			</g>
		</g>
		<text transform="matrix(1 0 0 1 91.4331 62.9625)" class="st6 st9 st10">Sparplan Basic</text>
		<text transform="matrix(1 0 0 1 91.3465 236.7447)" class="st6 st9 st10">Sparplan Basic</text>
		<text transform="matrix(1 0 0 1 66.1631 150.6644)" class="st6 st9 st8">Sparplan Basic</text>
	</g>
</g>
</svg>
