<?xml version="1.0" encoding="UTF-8"?>
<svg width="34px" height="23px" viewBox="0 0 34 23" version="1.1" xmlns="http://www.w3.org/2000/svg" xmlns:xlink="http://www.w3.org/1999/xlink">
    <!-- Generator: Sketch 41.2 (35397) - http://www.bohemiancoding.com/sketch -->
    <title>statistic</title>
    <desc>Created with Sketch.</desc>
    <defs></defs>
    <g id="Page-1" stroke="none" stroke-width="1" fill="none" fill-rule="evenodd">
        <g id="Artboard" transform="translate(-237.000000, -57.000000)">
            <g id="elements" transform="translate(64.000000, 17.000000)">
                <g id="statistic" transform="translate(172.000000, 34.000000)">
                    <g transform="translate(18.224184, 17.798652) rotate(13.000000) translate(-18.224184, -17.798652) translate(3.702908, 3.277376)">
                        <polyline id="Line" stroke="#FFC400" stroke-width="2" stroke-linecap="square" points="2.74053016 25.8347038 8.03347398 14.2230763 23.1034538 18.4690599 26.0905174 3.36431319"></polyline>
                        <path d="M8.19148936,16.3829787 C9.42531699,16.3829787 10.4255319,15.3827638 10.4255319,14.1489362 C10.4255319,12.9151085 9.42531699,11.9148936 8.19148936,11.9148936 C6.95766173,11.9148936 5.95744681,12.9151085 5.95744681,14.1489362 C5.95744681,15.3827638 6.95766173,16.3829787 8.19148936,16.3829787 Z" id="Oval-241-Copy-4" fill="#40AEEF"></path>
                        <path d="M2.34603154,28.3699585 C3.57985917,28.3699585 4.58007409,27.3697436 4.58007409,26.1359159 C4.58007409,24.9020883 3.57985917,23.9018734 2.34603154,23.9018734 C1.1122039,23.9018734 0.111988984,24.9020883 0.111988984,26.1359159 C0.111988984,27.3697436 1.1122039,28.3699585 2.34603154,28.3699585 Z" id="Oval-241-Copy-7" fill="#40AEEF"></path>
                        <path d="M22.1729088,20.1254691 C23.4067364,20.1254691 24.4069513,19.1252542 24.4069513,17.8914265 C24.4069513,16.6575989 23.4067364,15.657384 22.1729088,15.657384 C20.9390812,15.657384 19.9388662,16.6575989 19.9388662,17.8914265 C19.9388662,19.1252542 20.9390812,20.1254691 22.1729088,20.1254691 Z" id="Oval-241-Copy-5" fill="#40AEEF"></path>
                        <path d="M26.4370355,4.76494635 C27.6708631,4.76494635 28.6710781,3.76473143 28.6710781,2.53090379 C28.6710781,1.29707616 27.6708631,0.296861241 26.4370355,0.296861241 C25.2032079,0.296861241 24.202993,1.29707616 24.202993,2.53090379 C24.202993,3.76473143 25.2032079,4.76494635 26.4370355,4.76494635 Z" id="Oval-241-Copy-6" fill="#40AEEF"></path>
                    </g>
                </g>
            </g>
        </g>
    </g>
</svg>