<?xml version="1.0" encoding="utf-8"?>
<!-- Generator: Adobe Illustrator 21.1.0, SVG Export Plug-In . SVG Version: 6.00 Build 0)  -->
<svg version="1.1" id="Layer_1" xmlns="http://www.w3.org/2000/svg" xmlns:xlink="http://www.w3.org/1999/xlink" x="0px" y="0px"
	 viewBox="0 0 140 79.6" style="enable-background:new 0 0 140 79.6;" xml:space="preserve">
<style type="text/css">
	.st0{fill:#F04923;}
	.st1{fill:#F37321;}
	.st2{fill:#F99D1C;}
	.st3{fill:#35353D;}
	.st4{font-family:'AtlantisHeart';}
	.st5{font-size:18.1443px;}
</style>
<g>
	<g>
		<path class="st0" d="M56.8,45.5c0-4.8,2-9.2,5.1-12.4c3.2-3.2,7.6-5.1,12.4-5.1c3.7,0,7.1,1.1,9.9,3.1c2.9,2,5.2,4.8,6.5,8.2
			c0.3,0.9,0.6,1.8,0.8,2.8c0.1,0.4,0.1,0.7,0.2,1.1c-1.2-0.2-2.5-0.3-3.7-0.4c-0.2-0.7-0.4-1.5-0.6-2.2c-1-2.6-2.8-4.9-5.1-6.5
			c-2.2-1.5-4.9-2.4-7.9-2.4c-3.9,0-7.3,1.6-9.9,4.1c-2.5,2.5-4.1,6-4.1,9.9h-3.6C56.8,45.7,56.8,45.5,56.8,45.5z"/>
		<path class="st1" d="M56.8,55c8.7-6.8,26.6-14.6,40.7-8.5c-8.5-0.3-16.2,0.9-22.9,3.3c-4.9,1.7-9.4,4-13.3,6.7
			C59.8,56.1,58.2,55.6,56.8,55z"/>
		<path class="st0" d="M45.7,49.8c6-4,17.8-10.3,26.6-5.7c-10.7,0.8-19.1,5.2-23,7.6C47.9,51.1,46.7,50.4,45.7,49.8z"/>
		<path class="st2" d="M68.9,58.6c8-7.3,17.1-8,21.5-7c-7.8,2.4-13.6,5.9-16.7,8C72,59.3,70.4,59,68.9,58.6z"/>
		<path class="st0" d="M49.5,38.5c3-1.1,5.5,1.1,6.7,3.1C53,40.7,50.4,41.4,49,42C49.1,40.8,49.2,39.6,49.5,38.5L49.5,38.5z
			 M74.2,18.3c0.6,0,1.3,0,1.9,0.1c2.4,3.7-0.2,6.8-2.5,8.1c1.4-4.5-0.5-7.8-0.7-8.1C73.3,18.3,73.7,18.3,74.2,18.3L74.2,18.3z
			 M81.9,19.5c1,0.3,1.9,0.7,2.9,1.1c0.7,4.4-3,6.2-5.7,6.4C82,23.8,82,20.3,81.9,19.5L81.9,19.5z M90,23.9
			c-0.3,0.8-1.8,3.9-5.7,5.6c2.5,0.9,6.7,0.9,7.9-3.6C91.5,25.1,90.7,24.5,90,23.9L90,23.9z M94.8,29c0.6,0.9,1.2,1.8,1.7,2.8
			c-2,3.2-5.7,2.6-7.9,1.4C92.1,32.3,94,30.2,94.8,29L94.8,29z M98.7,37.7c0.2,1,0.4,2,0.5,3.1c-3.4,2.2-6.4-0.1-7.8-2.2
			C94.8,39.3,97.4,38.3,98.7,37.7L98.7,37.7z M51.2,33.2c0.5-1,1-2.1,1.6-3c3.5-0.1,5.1,3.1,5.4,5.5C55.4,33.4,52.5,33.2,51.2,33.2
			L51.2,33.2z M56.2,25.8c1.1,0.4,4,1.7,5.8,5.1c0.7-2.4,0.4-6.2-3.3-7.4C57.8,24.3,57,25,56.2,25.8L56.2,25.8z M64.1,20.4
			c1-0.4,2-0.8,3.1-1.1c3.4,2.5,2.2,6.3,0.6,8.3C67.4,23.1,64.6,20.8,64.1,20.4z"/>
	</g>
	<text transform="matrix(1 0 0 1 14.7998 75.3018)" class="st3 st4 st5">S</text>
	<text transform="matrix(1 0 0 1 23.9998 75.3018)" class="st3 st4 st5">unshine Wellness</text>
</g>
</svg>
