<?xml version="1.0" encoding="utf-8"?>
<!-- Generator: Adobe Illustrator 21.0.2, SVG Export Plug-In . SVG Version: 6.00 Build 0)  -->
<svg version="1.1" id="Layer_1" xmlns="http://www.w3.org/2000/svg" xmlns:xlink="http://www.w3.org/1999/xlink" x="0px" y="0px"
	 viewBox="0 0 32 32" style="enable-background:new 0 0 32 32;" xml:space="preserve">
<style type="text/css">
	.st0{fill:#FFFFFF;}
	.st1{fill:#1D18F5;}
</style>
<g>
	<path id="path-1" class="st0" d="M15.8,17.8c0-1.1,1-1.7,1.7-2.1c0.8-0.4,1-0.6,1-1c0-0.5-0.6-0.7-1.2-0.8c-1,0-1.6,0.3-2,0.5
		L15,12.7c0.5-0.2,1.3-0.4,2.2-0.4c2.1,0,3.5,1,3.5,2.6c0,2-2.8,2.2-2.8,3.1c0,0.3,0.3,0.6,0.8,0.6c0.3,0,1.1,0.1,2-0.3L21,20
		c-0.5,0.2-1.1,0.3-1.9,0.3C17.2,20.3,15.8,19.3,15.8,17.8 M24.4,20.2c-0.4,0-0.7-0.2-0.8-0.6l-3-7.2h2.1l0.4,1.2h2.6l0.2-1.2h1.8
		l-1.6,7.7h-1.7 M24.7,18.1l0.6-2.9h-1.6L24.7,18.1 M13.3,20.2l-1.6-7.7h2l1.6,7.7H13.3 M10.3,20.2l-2.1-5.3l-0.8,4.5
		c-0.1,0.5-0.5,0.8-0.9,0.8H3.1V20c0.7-0.2,1.5-0.4,2-0.7c0.3-0.2,0.4-0.3,0.5-0.7l1.6-6.2h2.1l3.2,7.7h-2.2"/>
</g>
<title>icon-32x32-visa</title>
<desc>Created with Sketch.</desc>
<g id="ALL">
	<g id="Payment-Method-icons" transform="translate(-488.000000, -758.000000)">
		<g id="Group-2" transform="translate(416.000000, 758.000000)">
			<g id="icon-32x32-visa" transform="translate(72.000000, 0.000000)">
				<path id="Rectangle-15" class="st1" d="M12.7,0.3L12.7,0.3C4.1,2.1-1.5,10.6,0.3,19.3l0,0c1.8,8.6,10.3,14.2,18.9,12.4l0,0
					c8.6-1.8,14.2-10.3,12.4-18.9l0,0C29.9,4.1,21.4-1.5,12.7,0.3z"/>
				<g id="path10273" transform="translate(15.384615, 16.307692) scale(1, -1) translate(-15.384615, -16.307692) ">
					<path id="path-1_1_" class="st0" d="M15.5,18.3c0.2-1.1,1.3-1.5,2.1-1.7c0.9-0.2,1.1-0.4,1.2-0.8c0.1-0.5-0.4-0.8-1-1
						c-1-0.2-1.6,0-2.1,0.1l0-1.6c0.5-0.1,1.4-0.1,2.2,0.1c2.1,0.4,3.2,1.7,2.9,3.3c-0.4,2-3.2,1.6-3.4,2.5
						c-0.1,0.3,0.2,0.6,0.7,0.8c0.3,0.1,1.1,0.3,2,0.1l0,1.6c-0.5,0.1-1.1,0.1-1.9-0.1C16.3,21.1,15.1,19.7,15.5,18.3 M23.4,22.5
						c-0.4-0.1-0.6-0.3-0.7-0.8L21.2,14l2.1,0.4l0.1,1.3l2.5,0.5l0.4-1.1l1.8,0.4L25,22.7L23.4,22.5 M24.1,20.5l1.2-2.7l-1.6-0.3
						L24.1,20.5 M12.5,20.2l0-7.9l2,0.4l0,7.9L12.5,20.2 M9.6,19.6l-1-5.6l-1.7,4.2c-0.2,0.5-0.7,0.7-1,0.6l-3.3-0.7l0-0.2
						c0.7-0.1,1.6-0.1,2.1-0.3C5,17.5,5.1,17.4,5.3,17l2.8-5.7l2.1,0.4l1.6,8.2L9.6,19.6"/>
				</g>
			</g>
		</g>
	</g>
</g>
</svg>
